PathFileType	4	(X/Y/Z)	Walk1.trc
DataRate	CameraRate	NumFrames	NumMarkers	Units	OrigDataRate	OrigDataStartFrame	OrigNumFrames
200.000000	200.000000	9	56	mm	200.000000	335	536
Frame#	Times		RBHD		C7		T10		CLAV		RBack		LASI		RASI		LPSI		RACR1		RUA1		RElbow		RFA1		RWRR		RWRU		RCAR		LACR1		LElbow		LElbowM		LFA1		LWRR		LWRU		RTH1		RTH3		RTH2		RTH4		RLFC		RTB1		RTB3		RTB2		RTB4		RMMAL		RMT1		RMT5		LTH3		LTH2		LTH4		LTB1		RPSI		LBHD		LLFC		LTB4		LTH1		LTB3		LFHD		RElbowM		LMT1		LCAL		LMT5		RLMAL		LLMAL		LTB2		LCAR		RToe		LToe		LUA1		RCAL
			X1	Y1	Z1	X2	Y2	Z2	X3	Y3	Z3	X4	Y4	Z4	X5	Y5	Z5	X6	Y6	Z6	X7	Y7	Z7	X8	Y8	Z8	X9	Y9	Z9	X10	Y10	Z10	X11	Y11	Z11	X12	Y12	Z12	X13	Y13	Z13	X14	Y14	Z14	X15	Y15	Z15	X16	Y16	Z16	X17	Y17	Z17	X18	Y18	Z18	X19	Y19	Z19	X20	Y20	Z20	X21	Y21	Z21	X22	Y22	Z22	X23	Y23	Z23	X24	Y24	Z24	X25	Y25	Z25	X26	Y26	Z26	X27	Y27	Z27	X28	Y28	Z28	X29	Y29	Z29	X30	Y30	Z30	X31	Y31	Z31	X32	Y32	Z32	X33	Y33	Z33	X34	Y34	Z34	X35	Y35	Z35	X36	Y36	Z36	X37	Y37	Z37	X38	Y38	Z38	X39	Y39	Z39	X40	Y40	Z40	X41	Y41	Z41	X42	Y42	Z42	X43	Y43	Z43	X44	Y44	Z44	X45	Y45	Z45	X46	Y46	Z46	X47	Y47	Z47	X48	Y48	Z48	X49	Y49	Z49	X50	Y50	Z50	X51	Y51	Z51	X52	Y52	Z52	X53	Y53	Z53	X54	Y54	Z54	X55	Y55	Z55	X56	Y56	Z56

335	1.675	152.13	1558	367.89	143.4	1426.8	311.04	59.276	1115.1	307.6	281.93	1352.6	286.52	86.871	1338.5	419.03	253.91	935.86	155.53	242.93	920.28	459.48	74.13	947.32	240.86	226.08	1394.1	452.87	223.03	1217	558.84	220.98	1091.6	612.41	344.65	1000.3	620.86	464.87	944.31	564.04	418.8	896.29	606.04	487.82	888.57	603.66	160.82	1404	134.22	33.049	1094	59.777	31.364	1089.8	138.28	65.734	949.85	-0.0076698	99.928	830.05	18.397	19.71	838.38	7.4557	153.18	724.01	495.62	110.84	540.89	467.83	198.77	623.52	454.77	132.67	631.14	485.07	76.91	441.65	450.86	51.682	343.51	364.92	-69.898	196.9	361.98	-14.144	272.25	437.35	-6.0437	271.46	363.3	-151.25	146.89	315.95	-75.867	40.117	304.72	-96.356	33.683	393.96	324.78	568.09	140.97	351.62	679.86	156.33	288.61	648.74	122.21	423.82	384.46	226.82	65.846	947.93	345.54	152.79	1557.1	230.03	365.03	462.24	164.16	426.98	291.55	235.75	249.65	738.41	113.8	432.19	199.78	244.34	329.6	1610	253.11	202.5	1043	527.16	544.13	43.928	291.87	336.45	28.803	274.77	513.89	34.376	211.73	-176.56	142.82	404.11	377.66	69.387	225.51	399.61	284.21	169.46	71.249	782.62	-27.889	-25.07	25.061	319.91	585.94	48.999	271.6	84.271	1213.1	59.56	-245.76	128.22	364.51
336	1.68	158.02	1558.6	366.62	149.58	1427.6	310.37	65.755	1115.7	307.59	288.21	1353.1	285.83	93.421	1339.2	418.32	260.43	936.85	155.69	248.19	920.91	459.98	80.31	948.26	240.98	232.72	1395	452.03	228.52	1217.6	558.02	226.26	1092.5	612.17	348.65	999.83	620.62	468.7	942.75	563.55	422	895.24	606.12	490.65	886.79	604.14	167.38	1404.1	133.47	39.675	1094	59.353	38.118	1089.9	138.32	71.983	949.72	-0.31035	105.93	829.82	17.989	25.564	838.19	7.3315	159.95	723.8	495.07	119.74	540.03	467.39	207	623.92	454.31	140.47	630.57	484.44	86.487	441	450.97	59.998	342.82	365.29	-64.114	198.68	362.23	-7.2627	273.33	437.87	1.1737	271.83	363.97	-146.21	149.65	316.56	-75.283	40.254	304.85	-95.161	34.115	393.84	331.96	569.31	140.84	357.71	681.18	155.74	294.68	649.41	121.79	429.29	384.08	225.95	72.151	948.15	345.23	158.88	1557.4	228.66	371.11	462.24	164.02	431.16	291	235.26	255.22	738.58	112.61	434.96	199.24	244.06	335.53	1610.4	251.77	207.24	1044	526.46	544.91	43.086	292.64	336.87	29.246	274.52	515.16	33.89	211.48	-172.22	146.51	404.47	379.04	69.372	225.28	402.57	283.85	169.46	76.669	782.62	-28.423	-25.025	25.125	320.27	587.14	48.112	273.94	90.567	1213.1	59.159	-241.1	134.21	364.39
337	1.685	164.22	1559.2	365.18	155.99	1428.3	309.76	72.166	1116.5	307.6	294.75	1353.8	285.26	99.631	1340.2	417.48	267.22	938.13	155.65	253.79	921.61	460.32	86.828	948.84	240.57	239.05	1395.7	451.27	233.84	1218.5	557.32	231.29	1093.3	611.66	352.55	999.45	620.21	471.89	940.97	563.49	425.25	894.23	605.82	493.35	885.15	604.58	173.7	1404.3	132.81	46.412	1094.1	59.185	44.83	1090	138.41	78.119	949.82	-0.55991	112.09	829.8	17.477	31.385	838.35	7.4404	167.27	723.73	494.29	129.02	538.99	467.3	215.07	623.71	453.96	148.81	630.08	483.99	96.496	440.31	451.04	68.822	342.48	365.86	-57.757	200.53	362.79	0.036355	274.49	438.53	8.9485	272.42	364.41	-140.48	152.95	317.32	-74.65	40.477	304.58	-94.033	34.688	393.64	339.09	570.66	141.3	363.87	682.81	154.86	301.23	650.24	121.44	434.69	383.65	225.2	78.594	948.62	344.99	165.15	1557.6	227.31	376.77	462.21	163.92	434.9	290.6	234.77	260.97	739.09	111.7	437.43	198.69	243.92	341.37	1611.3	250.73	211.53	1044.9	525.63	545.56	41.646	293.73	336.89	29.545	274.12	515.99	33.548	211.14	-167.06	150.65	404.88	379.89	69.386	225.18	405.87	283.58	169.01	82.36	782.73	-28.69	-25.024	25.053	320.51	588.27	46.629	275.39	97.337	1213	58.794	-235.68	140.44	364.42
338	1.69	170.06	1559.8	363.89	162.34	1428.7	308.97	78.264	1117.1	307.36	301.26	1354.3	284.68	105.95	1341.1	416.68	273.64	939.18	155.6	259.37	921.92	460.32	93.483	949.43	240.41	245.5	1396.7	450.68	240	1219.5	556.68	236.07	1094.1	610.95	356.55	999.03	619.58	474.89	939.32	563.61	428.09	892.98	605.92	496.05	883.19	603.95	180.2	1404.5	131.99	52.899	1094.2	58.927	51.495	1090.2	138.41	84.563	949.87	-0.85445	118.16	829.97	17.095	37.368	838.69	7.2297	174.24	723.36	493.69	138.47	538.33	467.14	223.24	623.89	453.81	157.05	629.56	483.56	106.9	439.66	451.19	78.292	341.91	366.51	-50.587	202.36	363.37	7.6451	275.56	439.19	17.189	273	365.1	-134.14	156	318.04	-73.849	40.712	304.63	-93.753	35.642	393.41	345.82	571.71	141.65	370.31	684.44	153.88	307.61	651.06	121.3	439.67	383.29	224.61	84.91	948.98	344.78	171.24	1557.7	226.12	381.93	462.39	163.94	438.48	290.29	234.33	266.55	739.6	111.18	439.58	198.27	244	347.34	1612.4	249.55	215.65	1046	524.68	546.1	40.723	294.47	336.85	29.701	273.89	516.44	33.368	211.06	-161.36	154.83	405.04	380.45	69.619	225.42	409.12	283.33	168.82	88.211	783.05	-29.051	-25.023	25.054	320.86	589.39	44.141	276.22	103.96	1213.2	58.256	-229.47	147.02	364.37
339	1.695	175.91	1560.6	362.7	168.51	1429.7	307.99	84.552	1117.5	307.33	307.45	1355	284.11	112.27	1342.5	416.1	279.88	940.41	155.33	265.3	922.49	459.62	100.08	950.17	240.16	251.83	1397.7	449.94	245.48	1220.2	556.12	240.64	1095	610.47	360.49	998.61	618.99	477.95	937.41	563.54	430.38	891.76	606.03	498.47	881.26	603.98	186.87	1405	131.33	59.84	1094.4	58.907	58.627	1090.9	137.85	90.954	950.08	-1.1068	124.38	830.14	16.601	43.966	838.85	7.1911	181.41	723.06	492.87	148.47	537.54	467.13	232.07	624.18	453.61	165.7	629.04	483.02	117.59	439	451.78	87.891	341.3	367.35	-43.379	204.01	364.29	15.559	276.77	440.24	25.604	273.53	366.32	-127.43	158.95	318.76	-72.512	41.205	304.63	-92.641	36.695	393	352.17	572.67	141.75	376.62	685.63	153.3	313.87	651.9	121.18	444.09	382.84	224.41	91.218	949.54	344.42	177.2	1558	224.97	386.04	462.65	163.86	441.77	290.21	234.32	272.57	740.24	110.64	441.13	198.05	244.3	353.3	1613.1	248.43	219.97	1047.2	523.88	546.55	40.004	294.86	336.91	29.848	273.9	516.9	33.224	211.21	-155.22	158.82	405.29	380.94	69.986	225.77	412.08	283.34	168.86	94.261	783.49	-29.36	-24.926	25.035	321.52	590.34	42.392	276.81	110.87	1213.3	57.855	-222.94	153.46	364.39
340	1.7	182.06	1561.6	361.86	174.75	1430.6	307.57	90.603	1118.3	307.01	313.91	1355.9	283.56	118.55	1343.6	415.58	286.54	941.83	155.12	270.9	923.17	459.26	106.23	950.99	239.62	258.22	1398.7	449.3	251.19	1221.1	555.53	245.06	1096	609.82	364.02	998.16	618.46	480.9	935.43	563.22	432.69	890.66	605.96	500.68	878.96	604.27	193.49	1405.4	130.56	66.567	1094.8	58.557	65.432	1091.2	137.32	97.472	950.58	-1.393	130.82	830.51	16.442	50.202	839.57	7.0287	188.78	722.85	492.06	158.61	536.6	467.16	241.31	624.68	453.75	174.29	628.63	482.95	128.27	438.36	452.44	98.342	340.61	368.3	-35.616	204.83	366.17	24.092	277.89	440.99	34.495	273.72	367.67	-119.78	162.24	319.32	-71.181	41.726	305.1	-90.586	37.598	392.71	358.25	573.4	141.56	382.86	686.63	152.64	319.67	652.61	121.36	447.84	382.6	224.56	97.169	950.27	344.08	183.26	1558.5	223.77	389.92	462.87	163.83	444.62	290.11	234.56	278.6	740.87	110.41	443.18	197.86	244.68	359.5	1613.7	247.2	224.35	1048.5	523.11	546.9	39.553	295.21	337.21	29.8	274.16	517.37	33.025	211.22	-148.27	163.1	405.78	381.55	70.533	225.92	414.57	283.32	169.23	100.53	783.53	-29.895	-24.475	25.103	322.18	591.05	41.2	277.61	117.51	1213.6	57.484	-215.57	159.78	364.45
341	1.705	188.19	1562.2	360.85	180.86	1431.5	306.92	96.774	1119	306.57	319.98	1356.8	283.44	124.92	1344.7	415.17	292.76	943.09	154.84	276.88	923.73	458.43	112.31	951.89	239.38	264.66	1399.6	448.56	256.8	1222.2	555	249.72	1097.3	608.73	367.29	997.88	617.82	483.83	933.41	562.84	434.79	889.33	605.18	502.56	876.98	604.02	200.36	1406.1	129.76	73.557	1095.2	58.054	72.091	1091.4	137.12	104.27	950.94	-1.6509	137.35	830.67	16.081	56.575	839.86	7.309	195.97	722.45	491.18	168.82	535.76	467.19	250.2	625.12	453.8	182.91	627.99	482.85	139.36	437.83	452.96	109.2	340.05	369.05	-26.948	206.08	367.33	32.962	279.06	441.61	43.997	273.7	369.02	-111.93	165.23	319.82	-69.49	42.095	305.51	-88.729	38.34	392.45	363.42	573.89	141.34	388.87	686.93	152.33	325.33	653.14	121.47	451.15	382.3	224.97	102.82	950.48	343.68	189.59	1559	222.71	393.72	463.02	163.93	447.1	289.61	235.17	285.06	741.83	110.06	444.56	197.66	245.05	365.45	1614.5	246.04	228.61	1049.8	522.31	547.31	39.187	295.8	337.15	30.036	274.17	517.81	32.857	211.08	-140.87	166.97	406.19	381.96	70.958	226.26	416.97	283.25	169.84	106.78	784.03	-30.125	-23.836	25.047	322.85	591.75	40.028	278.16	124.2	1213.9	57.107	-207.69	166.12	364.08
342	1.71	193.74	1563.1	359.7	187.02	1432.2	305.88	102.9	1119.6	306.25	325.91	1357.7	283.07	131.05	1346	414.69	298.65	944.23	154.61	282.83	924.26	457.36	118.25	952.56	238.77	270.8	1400.8	447.95	262.3	1223.1	554.46	254.07	1098.2	607.66	370.37	997.44	617.41	486.53	931.52	562.73	436.71	887.79	604.5	504.38	874.68	603.98	206.79	1406.6	129.2	80.181	1095.8	57.964	78.908	1092.2	137.16	111.05	951.31	-1.7572	143.99	831.18	15.899	63.229	840.17	7.0379	203.55	722.17	490.42	179.05	534.9	467.46	259.24	625.42	453.65	191.88	627.15	482.39	150.9	437.23	453.3	120.05	339.36	369.71	-18.003	207.56	367.91	42.298	280.28	442.29	53.916	273.73	370.23	-103.47	168.14	320.57	-67.03	43.07	305.29	-86.034	39.618	391.84	368.05	573.99	141.14	394.47	686.93	152.15	330.83	653.77	121.29	454.48	381.85	225.38	108.87	951.05	343.35	195.78	1559	221.76	397.22	463.13	163.86	449.26	288.94	235.81	291.25	742.73	109.93	446.29	197.23	245.59	371.13	1615.5	245.05	232.91	1051.1	521.48	547.66	38.864	296.16	337.38	30.109	274.32	518.12	32.737	211.02	-132.93	170.8	406.49	382.26	71.009	226.51	419.29	283.1	170.42	113.32	784.7	-30.338	-23.379	24.983	324.95	592.52	38.583	278.45	130.9	1214.4	56.841	-199.2	172.23	364.17
343	1.715	199.85	1564.5	358.8	193.2	1432.8	305.31	109.21	1120.4	305.71	331.96	1358.3	282.79	137.06	1347.1	414.49	304.76	945.5	154.38	288.47	924.5	456.89	124.44	953.53	238.52	276.84	1401.8	447.34	267.83	1224.2	553.68	258.97	1098.8	606.59	373.65	997.01	617.04	488.91	929.41	562.66	438.43	886.14	603.94	505.98	872.51	603.84	213.07	1407.3	128.53	86.981	1096.1	57.721	85.749	1092.8	137.1	117.89	951.88	-1.9009	150.73	831.62	15.734	70.279	841.08	6.8519	210.79	721.45	489.82	189.41	534.23	467.66	268.29	625.79	453.88	200.82	626.6	481.77	162.7	436.49	453.31	131.39	338.42	370.17	-9.1986	209.09	368.64	51.627	281.63	442.74	63.994	273.78	370.96	-94.872	170.86	321.73	-64.138	44.588	305.51	-82.871	41.922	391.55	371.84	573.9	141.22	400.25	686.33	151.86	335.99	654.26	121.22	457.52	381.15	226.05	114.83	951.64	342.94	201.42	1559.5	220.84	400.37	463.11	163.88	451.57	288.48	236.41	297.55	743.71	109.85	447.54	196.66	246.08	377.21	1615.9	243.8	237.23	1052.5	520.44	547.94	38.355	296.62	337.3	30.253	274.28	518.37	32.642	211.1	-124.55	174.35	407.22	382.69	70.93	226.64	421.48	282.89	170.87	120.22	785.04	-30.762	-21.916	24.879	326.54	593.15	37.37	278.81	137.91	1215.1	56.036	-190.44	178.42	364.48
